<svg width="35" height="35" viewBox="0 0 35 35" fill="none" xmlns="http://www.w3.org/2000/svg">
<path d="M17.5 21.875C22.3325 21.875 26.25 17.9575 26.25 13.125C26.25 8.29251 22.3325 4.375 17.5 4.375C12.6675 4.375 8.75 8.29251 8.75 13.125C8.75 17.9575 12.6675 21.875 17.5 21.875Z" stroke="black" stroke-width="1.25" stroke-linecap="round" stroke-linejoin="round"/>
<path d="M11.6663 19.9793C9.92644 20.8046 8.45547 22.1052 7.42327 23.7309C6.39108 25.3566 5.83977 27.2411 5.83301 29.1668C5.83301 29.5536 5.98665 29.9245 6.26014 30.198C6.53363 30.4715 6.90457 30.6251 7.29134 30.6251H27.708C28.0948 30.6251 28.4657 30.4715 28.7392 30.198C29.0127 29.9245 29.1663 29.5536 29.1663 29.1668C29.1678 27.2337 28.6204 25.3398 27.5877 23.7056C26.5551 22.0714 25.0796 20.764 23.333 19.9355" stroke="black" stroke-width="1.25" stroke-linecap="round" stroke-linejoin="round"/>
</svg>
