<svg width="25" height="25" viewBox="0 0 25 25" fill="none" xmlns="http://www.w3.org/2000/svg">
<rect width="25" height="25" fill="white"/>
<path d="M20.3854 5.66675C21.3402 6.62533 21.8762 7.92317 21.8762 9.27612C21.8762 10.6291 21.3402 11.9269 20.3854 12.8855L12.5 20.8334L4.61454 12.8855C3.90542 12.1716 3.42264 11.2644 3.22663 10.2774C3.03063 9.29044 3.13011 8.26758 3.51262 7.33688C3.89513 6.40618 4.54367 5.60899 5.37707 5.0451C6.21046 4.48121 7.19168 4.17567 8.19788 4.16675C9.54334 4.17491 10.8312 4.714 11.7812 5.66675C12.0583 5.94094 12.2998 6.24891 12.5 6.58341C12.7001 6.24891 12.9416 5.94094 13.2187 5.66675C13.6868 5.19181 14.2447 4.81466 14.8598 4.55723C15.475 4.29981 16.1352 4.16724 16.802 4.16724C17.4689 4.16724 18.1291 4.29981 18.7443 4.55723C19.3594 4.81466 19.9173 5.19181 20.3854 5.66675V5.66675Z" stroke="#3D88F8" stroke-linecap="round" stroke-linejoin="round"/>
</svg>
