<svg width="35" height="35" viewBox="0 0 35 35" fill="none" xmlns="http://www.w3.org/2000/svg">
<path d="M20.4167 13.125H16.7709C16.1907 13.125 15.6343 13.3555 15.2241 13.7657C14.8138 14.1759 14.5834 14.7323 14.5834 15.3125V15.3125C14.5834 15.8927 14.8138 16.4491 15.2241 16.8593C15.6343 17.2695 16.1907 17.5 16.7709 17.5H18.2292C18.8094 17.5 19.3658 17.7305 19.776 18.1407C20.1862 18.5509 20.4167 19.1073 20.4167 19.6875V19.6875C20.4167 20.2677 20.1862 20.8241 19.776 21.2343C19.3658 21.6445 18.8094 21.875 18.2292 21.875H14.5834" stroke="white" stroke-width="2" stroke-linecap="round" stroke-linejoin="round"/>
<path d="M17.5 23.3337V21.8753M30.625 27.7087H4.375V7.29199H30.625V27.7087ZM30.625 7.29199H24.7917C24.7917 8.83909 25.4062 10.3228 26.5002 11.4168C27.5942 12.5107 29.0779 13.1253 30.625 13.1253V7.29199ZM4.375 13.1253C5.9221 13.1253 7.40583 12.5107 8.49979 11.4168C9.59375 10.3228 10.2083 8.83909 10.2083 7.29199H4.375V13.1253ZM30.625 21.8753C29.0779 21.8753 27.5942 22.4899 26.5002 23.5839C25.4062 24.6778 24.7917 26.1616 24.7917 27.7087H30.625V21.8753ZM4.375 27.7087H10.2083C10.2083 26.1616 9.59375 24.6778 8.49979 23.5839C7.40583 22.4899 5.9221 21.8753 4.375 21.8753V21.8753V27.7087ZM17.5 13.1253V11.667V13.1253Z" stroke="white" stroke-width="2" stroke-linecap="round" stroke-linejoin="round"/>
</svg>
