<svg width="25" height="25" viewBox="0 0 25 25" fill="none" xmlns="http://www.w3.org/2000/svg">
<path d="M20.8333 20.8333L15.625 15.625M17.7083 10.4167C17.7083 11.8588 17.2807 13.2686 16.4795 14.4677C15.6783 15.6668 14.5394 16.6014 13.2071 17.1533C11.8747 17.7052 10.4086 17.8496 8.99414 17.5682C7.57969 17.2869 6.28044 16.5924 5.26068 15.5727C4.24093 14.5529 3.54646 13.2536 3.26511 11.8392C2.98376 10.4248 3.12816 8.95865 3.68005 7.62627C4.23194 6.29389 5.16653 5.15509 6.36564 4.35387C7.56475 3.55265 8.97451 3.125 10.4167 3.125C12.3505 3.125 14.2052 3.89323 15.5727 5.26068C16.9401 6.62813 17.7083 8.4828 17.7083 10.4167V10.4167Z" stroke="black" stroke-linecap="round" stroke-linejoin="round"/>
<path d="M21.3543 21.3541L17.7085 17.7083" stroke="black" stroke-width="2" stroke-linecap="round" stroke-linejoin="round"/>
</svg>
