<svg width="35" height="35" viewBox="0 0 35 35" fill="none" xmlns="http://www.w3.org/2000/svg">
<path d="M23.3333 18.958H26.9791C27.5592 18.958 28.1156 18.7275 28.5259 18.3173C28.9361 17.9071 29.1666 17.3507 29.1666 16.7705C29.1666 16.1903 28.9361 15.6339 28.5259 15.2237C28.1156 14.8135 27.5592 14.583 26.9791 14.583H25.5208C24.9406 14.583 24.3842 14.3525 23.974 13.9423C23.5637 13.5321 23.3333 12.9757 23.3333 12.3955C23.3333 11.8153 23.5637 11.2589 23.974 10.8487C24.3842 10.4385 24.9406 10.208 25.5208 10.208H29.1666" stroke="white" stroke-width="2" stroke-linecap="round" stroke-linejoin="round"/>
<path d="M20.4166 4.375H7.29159C6.90481 4.375 6.53388 4.52865 6.26039 4.80214C5.9869 5.07563 5.83325 5.44656 5.83325 5.83333V30.625L9.24575 29.1667L12.6437 30.625L16.0416 29.1667L19.4395 30.625L22.8374 29.1667L26.2499 30.625V26.25" stroke="white" stroke-width="2" stroke-linecap="round" stroke-linejoin="round"/>
<path d="M17.5001 16.0417H11.6667M26.2501 10.2083V8.75V10.2083ZM26.2501 20.4167V18.9583V20.4167ZM17.5001 21.875H11.6667H17.5001Z" stroke="white" stroke-width="2" stroke-linecap="round" stroke-linejoin="round"/>
</svg>
