<svg width="30" height="30" viewBox="0 0 30 30" fill="none" xmlns="http://www.w3.org/2000/svg">
<path d="M16.1626 8.51266C15.9575 8.51163 15.7557 8.46012 15.5751 8.36266L15.0001 8.06266L14.4251 8.36266C14.2191 8.47041 13.9872 8.51859 13.7553 8.50178C13.5235 8.48497 13.3009 8.40383 13.1126 8.26748C12.9243 8.13113 12.7778 7.94498 12.6894 7.72994C12.6011 7.5149 12.5745 7.27948 12.6126 7.05016L12.7251 6.40016L12.2501 5.95016C12.085 5.78661 11.9688 5.58028 11.9145 5.35434C11.8602 5.1284 11.8699 4.89179 11.9426 4.67107C12.0153 4.45036 12.1481 4.25428 12.3261 4.10486C12.5041 3.95543 12.7202 3.85857 12.9501 3.82516L13.5876 3.75016L13.8751 3.16266C13.9775 2.95132 14.1373 2.77308 14.3363 2.64837C14.5352 2.52366 14.7653 2.45752 15.0001 2.45752C15.2349 2.45752 15.465 2.52366 15.664 2.64837C15.863 2.77308 16.0228 2.95132 16.1251 3.16266L16.4126 3.75016L17.0501 3.85016C17.2801 3.88357 17.4962 3.98043 17.6742 4.12986C17.8521 4.27928 17.9849 4.47536 18.0576 4.69607C18.1303 4.91679 18.1401 5.1534 18.0857 5.37934C18.0314 5.60528 17.9152 5.81161 17.7501 5.97516L17.2751 6.42516L17.3876 7.07516C17.4336 7.3083 17.4121 7.54972 17.3258 7.77111C17.2395 7.9925 17.0918 8.18469 16.9001 8.32516C16.6771 8.45643 16.4213 8.52147 16.1626 8.51266Z" fill="#BAD6FF"/>
<path d="M10 20V26.25C10 26.5815 9.8683 26.8995 9.63388 27.1339C9.39946 27.3683 9.08152 27.5 8.75 27.5H3.75C3.41848 27.5 3.10054 27.3683 2.86612 27.1339C2.6317 26.8995 2.5 26.5815 2.5 26.25V20C2.5 19.6685 2.6317 19.3505 2.86612 19.1161C3.10054 18.8817 3.41848 18.75 3.75 18.75H8.75C9.08152 18.75 9.39946 18.8817 9.63388 19.1161C9.8683 19.3505 10 19.6685 10 20ZM17.5 11.25H12.5C12.1685 11.25 11.8505 11.3817 11.6161 11.6161C11.3817 11.8505 11.25 12.1685 11.25 12.5V26.25C11.25 26.5815 11.3817 26.8995 11.6161 27.1339C11.8505 27.3683 12.1685 27.5 12.5 27.5H17.5C17.8315 27.5 18.1495 27.3683 18.3839 27.1339C18.6183 26.8995 18.75 26.5815 18.75 26.25V12.5C18.75 12.1685 18.6183 11.8505 18.3839 11.6161C18.1495 11.3817 17.8315 11.25 17.5 11.25ZM26.25 16.25H21.25C20.9185 16.25 20.6005 16.3817 20.3661 16.6161C20.1317 16.8505 20 17.1685 20 17.5V26.25C20 26.5815 20.1317 26.8995 20.3661 27.1339C20.6005 27.3683 20.9185 27.5 21.25 27.5H26.25C26.5815 27.5 26.8995 27.3683 27.1339 27.1339C27.3683 26.8995 27.5 26.5815 27.5 26.25V17.5C27.5 17.1685 27.3683 16.8505 27.1339 16.6161C26.8995 16.3817 26.5815 16.25 26.25 16.25Z" fill="#2D81FF"/>
</svg>
