<svg width="21" height="21" viewBox="0 0 21 21" fill="none" xmlns="http://www.w3.org/2000/svg">
<path d="M7.04167 9.10417L13.9375 5.65625M4.25 7.375C4.86807 7.375 5.47225 7.55828 5.98616 7.90166C6.50006 8.24504 6.9006 8.7331 7.13712 9.30412C7.37365 9.87513 7.43553 10.5035 7.31495 11.1097C7.19438 11.7158 6.89675 12.2727 6.45971 12.7097C6.02267 13.1467 5.46585 13.4444 4.85966 13.565C4.25347 13.6855 3.62513 13.6236 3.05411 13.3871C2.4831 13.1506 1.99504 12.7501 1.65166 12.2362C1.30828 11.7223 1.125 11.1181 1.125 10.5C1.125 9.6712 1.45424 8.87634 2.04029 8.29029C2.62634 7.70424 3.4212 7.375 4.25 7.375V7.375ZM13.625 16.75C13.625 17.3681 13.8083 17.9723 14.1517 18.4862C14.495 19.0001 14.9831 19.4006 15.5541 19.6371C16.1251 19.8736 16.7535 19.9355 17.3597 19.815C17.9658 19.6944 18.5227 19.3967 18.9597 18.9597C19.3967 18.5227 19.6944 17.9658 19.815 17.3597C19.9355 16.7535 19.8736 16.1251 19.6371 15.5541C19.4006 14.9831 19.0001 14.495 18.4862 14.1517C17.9723 13.8083 17.3681 13.625 16.75 13.625C15.9212 13.625 15.1263 13.9542 14.5403 14.5403C13.9542 15.1263 13.625 15.9212 13.625 16.75ZM7.04167 11.8958L13.9375 15.3438L7.04167 11.8958ZM16.75 7.375C17.3681 7.375 17.9723 7.19172 18.4862 6.84834C19.0001 6.50496 19.4006 6.01691 19.6371 5.44589C19.8736 4.87487 19.9355 4.24653 19.815 3.64034C19.6944 3.03415 19.3967 2.47733 18.9597 2.04029C18.5227 1.60325 17.9658 1.30563 17.3597 1.18505C16.7535 1.06447 16.1251 1.12635 15.5541 1.36288C14.9831 1.5994 14.495 1.99994 14.1517 2.51384C13.8083 3.02775 13.625 3.63193 13.625 4.25C13.625 5.0788 13.9542 5.87366 14.5403 6.45971C15.1263 7.04576 15.9212 7.375 16.75 7.375Z" stroke="black" stroke-linecap="round" stroke-linejoin="round"/>
</svg>
