<svg width="21" height="19" viewBox="0 0 21 19" fill="none" xmlns="http://www.w3.org/2000/svg">
<path d="M18.3854 2.66675C19.3402 3.62533 19.8762 4.92317 19.8762 6.27612C19.8762 7.62908 19.3402 8.92692 18.3854 9.8855L10.5 17.8334L2.61454 9.8855C1.90542 9.17159 1.42264 8.26437 1.22663 7.2774C1.03063 6.29044 1.13011 5.26758 1.51262 4.33688C1.89513 3.40618 2.54367 2.60899 3.37707 2.0451C4.21046 1.48121 5.19168 1.17567 6.19788 1.16675C7.54334 1.17491 8.83116 1.714 9.78121 2.66675C10.0583 2.94094 10.2998 3.24891 10.5 3.58341C10.7001 3.24891 10.9416 2.94094 11.2187 2.66675C11.6868 2.19181 12.2447 1.81466 12.8598 1.55723C13.475 1.29981 14.1352 1.16724 14.802 1.16724C15.4689 1.16724 16.1291 1.29981 16.7443 1.55723C17.3594 1.81466 17.9173 2.19181 18.3854 2.66675V2.66675Z" fill="#3D88F8" stroke="#3D88F8" stroke-linecap="round" stroke-linejoin="round"/>
</svg>
