<svg width="30" height="30" viewBox="0 0 30 30" fill="none" xmlns="http://www.w3.org/2000/svg">
<path d="M21.1254 16.25C20.8993 17.3561 20.3778 18.3804 19.6163 19.2139C18.8548 20.0474 17.8817 20.6591 16.8005 20.984C15.7192 21.3089 14.5702 21.3349 13.4753 21.0591C12.3805 20.7833 11.3809 20.2161 10.5825 19.4178C9.78421 18.6195 9.21703 17.6198 8.94126 16.525C8.66549 15.4302 8.69143 14.2811 9.01632 13.1999C9.3412 12.1186 9.9529 11.1456 10.7864 10.3841C11.62 9.62258 12.6442 9.10109 13.7504 8.875" stroke="black" stroke-linecap="round" stroke-linejoin="round"/>
<path d="M15.4125 3.75H15C12.775 3.75 10.5999 4.4098 8.74984 5.64597C6.89979 6.88213 5.45785 8.63914 4.60636 10.6948C3.75487 12.7505 3.53209 15.0125 3.96617 17.1948C4.40025 19.3771 5.47171 21.3816 7.04505 22.9549C8.61839 24.5283 10.623 25.5997 12.8052 26.0338C14.9875 26.4679 17.2495 26.2451 19.3052 25.3936C21.3609 24.5422 23.1179 23.1002 24.354 21.2502C25.5902 19.4001 26.25 17.225 26.25 15C26.25 14.8625 26.25 14.725 26.25 14.5875M18.75 11.25L15.625 14.375L18.75 11.25ZM18.75 7.5V11.25H22.5L26.25 7.5H22.5V3.75L18.75 7.5Z" stroke="black" stroke-linecap="round" stroke-linejoin="round"/>
</svg>
