<svg width="30" height="30" viewBox="0 0 30 30" fill="none" xmlns="http://www.w3.org/2000/svg">
<path d="M17.5 26.25H7.5C7.16848 26.25 6.85054 26.1183 6.61612 25.8839C6.3817 25.6495 6.25 25.3315 6.25 25V5C6.25 4.66848 6.3817 4.35054 6.61612 4.11612C6.85054 3.8817 7.16848 3.75 7.5 3.75H20C20.3315 3.75 20.6495 3.8817 20.8839 4.11612C21.1183 4.35054 21.25 4.66848 21.25 5V7.5" stroke="black" stroke-linecap="round" stroke-linejoin="round"/>
<path d="M23.75 13.75H20.625C20.1277 13.75 19.6508 13.9475 19.2992 14.2992C18.9475 14.6508 18.75 15.1277 18.75 15.625V15.625C18.75 16.1223 18.9475 16.5992 19.2992 16.9508C19.6508 17.3025 20.1277 17.5 20.625 17.5H21.875C22.3723 17.5 22.8492 17.6975 23.2008 18.0492C23.5525 18.4008 23.75 18.8777 23.75 19.375V19.375C23.75 19.8723 23.5525 20.3492 23.2008 20.7008C22.8492 21.0525 22.3723 21.25 21.875 21.25H18.75" stroke="black" stroke-linecap="round" stroke-linejoin="round"/>
<path d="M21.25 22.5V21.25M16.25 3.75H11.25L11.875 6.25H15.625L16.25 3.75ZM21.25 13.75V12.5V13.75Z" stroke="black" stroke-linecap="round" stroke-linejoin="round"/>
</svg>
