<svg width="26" height="26" viewBox="0 0 26 26" fill="none" xmlns="http://www.w3.org/2000/svg">
<path d="M25.1372 12.1124L13.8872 0.862424C13.771 0.745263 13.6327 0.65227 13.4804 0.588809C13.3281 0.525349 13.1647 0.492676 12.9997 0.492676C12.8347 0.492676 12.6713 0.525349 12.519 0.588809C12.3666 0.65227 12.2284 0.745263 12.1122 0.862424L0.862186 12.1124C0.688739 12.2882 0.571244 12.5114 0.524526 12.7539C0.477808 12.9964 0.503962 13.2473 0.599686 13.4749C0.693461 13.7032 0.852708 13.8986 1.05736 14.0365C1.26201 14.1744 1.5029 14.2487 1.74969 14.2499H2.99969V23.3749C3.02248 23.9596 3.27596 24.5115 3.70467 24.9097C4.13338 25.308 4.70239 25.5202 5.28719 25.4999H8.62469C8.95621 25.4999 9.27415 25.3682 9.50857 25.1338C9.74299 24.8994 9.87469 24.5814 9.87469 24.2499V18.1249C9.87469 17.7934 10.0064 17.4755 10.2408 17.241C10.4752 17.0066 10.7932 16.8749 11.1247 16.8749H14.8747C15.2062 16.8749 15.5241 17.0066 15.7586 17.241C15.993 17.4755 16.1247 17.7934 16.1247 18.1249V24.2499C16.1247 24.5814 16.2564 24.8994 16.4908 25.1338C16.7252 25.3682 17.0432 25.4999 17.3747 25.4999H20.7122C21.297 25.5202 21.866 25.308 22.2947 24.9097C22.7234 24.5115 22.9769 23.9596 22.9997 23.3749V14.2499H24.2497C24.4965 14.2487 24.7374 14.1744 24.942 14.0365C25.1467 13.8986 25.3059 13.7032 25.3997 13.4749C25.4954 13.2473 25.5216 12.9964 25.4748 12.7539C25.4281 12.5114 25.3106 12.2882 25.1372 12.1124Z" fill="#2D81FF"/>
</svg>
