<svg width="25" height="25" viewBox="0 0 25 25" fill="none" xmlns="http://www.w3.org/2000/svg">
<path d="M14.5827 9.375H11.9785C11.5641 9.375 11.1667 9.53962 10.8737 9.83265C10.5806 10.1257 10.416 10.5231 10.416 10.9375V10.9375C10.416 11.3519 10.5806 11.7493 10.8737 12.0424C11.1667 12.3354 11.5641 12.5 11.9785 12.5H13.0202C13.4346 12.5 13.832 12.6646 14.125 12.9576C14.4181 13.2507 14.5827 13.6481 14.5827 14.0625V14.0625C14.5827 14.4769 14.4181 14.8743 14.125 15.1674C13.832 15.4604 13.4346 15.625 13.0202 15.625H10.416" stroke="black" stroke-linecap="round" stroke-linejoin="round"/>
<path d="M12.5 16.6663V15.6247M21.875 19.7913H3.125V5.20801H21.875V19.7913ZM21.875 5.20801H17.7083C17.7083 6.31308 18.1473 7.37288 18.9287 8.15429C19.7101 8.93569 20.7699 9.37467 21.875 9.37467V5.20801ZM3.125 9.37467C4.23007 9.37467 5.28988 8.93569 6.07128 8.15429C6.85268 7.37288 7.29167 6.31308 7.29167 5.20801H3.125V9.37467ZM21.875 15.6247C20.7699 15.6247 19.7101 16.0637 18.9287 16.8451C18.1473 17.6265 17.7083 18.6863 17.7083 19.7913H21.875V15.6247ZM3.125 19.7913H7.29167C7.29167 18.6863 6.85268 17.6265 6.07128 16.8451C5.28988 16.0637 4.23007 15.6247 3.125 15.6247V15.6247V19.7913ZM12.5 9.37467V8.33301V9.37467Z" stroke="black" stroke-linecap="round" stroke-linejoin="round"/>
</svg>
