<svg width="30" height="30" viewBox="0 0 30 30" fill="none" xmlns="http://www.w3.org/2000/svg">
<path d="M17.5 8.75H14.375C13.8777 8.75 13.4008 8.94754 13.0492 9.29917C12.6975 9.65081 12.5 10.1277 12.5 10.625V10.625C12.5 11.1223 12.6975 11.5992 13.0492 11.9508C13.4008 12.3025 13.8777 12.5 14.375 12.5H15.625C16.1223 12.5 16.5992 12.6975 16.9508 13.0492C17.3025 13.4008 17.5 13.8777 17.5 14.375V14.375C17.5 14.8723 17.3025 15.3492 16.9508 15.7008C16.5992 16.0525 16.1223 16.25 15.625 16.25H12.5" stroke="black" stroke-linecap="round" stroke-linejoin="round"/>
<path d="M7.5 26.25H22.5M25 21.25H5C4.66848 21.25 4.35054 21.1183 4.11612 20.8839C3.8817 20.6495 3.75 20.3315 3.75 20V5C3.75 4.66848 3.8817 4.35054 4.11612 4.11612C4.35054 3.8817 4.66848 3.75 5 3.75H25C25.3315 3.75 25.6495 3.8817 25.8839 4.11612C26.1183 4.35054 26.25 4.66848 26.25 5V20C26.25 20.3315 26.1183 20.6495 25.8839 20.8839C25.6495 21.1183 25.3315 21.25 25 21.25ZM15 7.5V8.75V7.5ZM15 16.25V17.5V16.25Z" stroke="black" stroke-linecap="round" stroke-linejoin="round"/>
</svg>
