<svg width="21" height="15" viewBox="0 0 21 15" fill="none" xmlns="http://www.w3.org/2000/svg">
<path d="M19.875 7.5C19.875 7.5 16.75 13.75 10.5 13.75C4.25 13.75 1.125 7.5 1.125 7.5C1.125 7.5 4.25 1.25 10.5 1.25C16.75 1.25 19.875 7.5 19.875 7.5ZM10.5 9.58333C10.912 9.58333 11.3148 9.46115 11.6574 9.23223C12 9.00331 12.2671 8.67794 12.4247 8.29726C12.5824 7.91658 12.6237 7.49769 12.5433 7.09356C12.4629 6.68943 12.2645 6.31822 11.9731 6.02686C11.6818 5.7355 11.3106 5.53708 10.9064 5.4567C10.5023 5.37631 10.0834 5.41757 9.70274 5.57525C9.32206 5.73293 8.99669 5.99996 8.76777 6.34256C8.53885 6.68516 8.41667 7.08796 8.41667 7.5C8.41667 8.05253 8.63616 8.58244 9.02686 8.97314C9.41756 9.36384 9.94747 9.58333 10.5 9.58333Z" stroke="#888888" stroke-linecap="round" stroke-linejoin="round"/>
</svg>
