<svg width="35" height="35" viewBox="0 0 35 35" fill="none" xmlns="http://www.w3.org/2000/svg">
<path d="M23.333 18.958H26.9788C27.559 18.958 28.1154 18.7275 28.5256 18.3173C28.9359 17.9071 29.1663 17.3507 29.1663 16.7705C29.1663 16.1903 28.9359 15.6339 28.5256 15.2237C28.1154 14.8135 27.559 14.583 26.9788 14.583H25.5205C24.9403 14.583 24.3839 14.3525 23.9737 13.9423C23.5635 13.5321 23.333 12.9757 23.333 12.3955C23.333 11.8153 23.5635 11.2589 23.9737 10.8487C24.3839 10.4385 24.9403 10.208 25.5205 10.208H29.1663" stroke="black" stroke-width="1.25" stroke-linecap="round" stroke-linejoin="round"/>
<path d="M20.4163 4.375H7.29134C6.90457 4.375 6.53363 4.52865 6.26014 4.80214C5.98665 5.07563 5.83301 5.44656 5.83301 5.83333V30.625L9.24551 29.1667L12.6434 30.625L16.0413 29.1667L19.4393 30.625L22.8372 29.1667L26.2497 30.625V26.25" stroke="black" stroke-width="1.25" stroke-linecap="round" stroke-linejoin="round"/>
<path d="M17.5003 16.0417H11.667M26.2503 10.2083V8.75V10.2083ZM26.2503 20.4167V18.9583V20.4167ZM17.5003 21.875H11.667H17.5003Z" stroke="black" stroke-width="1.25" stroke-linecap="round" stroke-linejoin="round"/>
</svg>
