<svg width="35" height="35" viewBox="0 0 35 35" fill="none" xmlns="http://www.w3.org/2000/svg">
<path d="M29.1667 23.333V29.1663C29.1667 29.5531 29.013 29.924 28.7395 30.1975C28.466 30.471 28.0951 30.6247 27.7083 30.6247H5.83333C5.44656 30.6247 5.07563 30.471 4.80214 30.1975C4.52865 29.924 4.375 29.5531 4.375 29.1663V11.6663C4.375 11.2796 4.52865 10.9086 4.80214 10.6351C5.07563 10.3617 5.44656 10.208 5.83333 10.208H27.7083C28.0951 10.208 28.466 10.3617 28.7395 10.6351C29.013 10.9086 29.1667 11.2796 29.1667 11.6663V17.4997" stroke="white" stroke-width="2" stroke-linecap="round" stroke-linejoin="round"/>
<path d="M29.1666 17.5H24.7916C23.9862 17.5 23.3333 18.1529 23.3333 18.9583V21.875C23.3333 22.6804 23.9862 23.3333 24.7916 23.3333H29.1666C29.9721 23.3333 30.625 22.6804 30.625 21.875V18.9583C30.625 18.1529 29.9721 17.5 29.1666 17.5Z" stroke="white" stroke-width="2" stroke-linecap="round" stroke-linejoin="round"/>
<path d="M8.75 10.2081L20.6063 4.94356C20.948 4.79068 21.3354 4.77506 21.6883 4.89994C22.0412 5.02481 22.3326 5.28062 22.5021 5.6144L24.7917 10.2081" stroke="white" stroke-width="2" stroke-linecap="round" stroke-linejoin="round"/>
</svg>
