<svg width="30" height="30" viewBox="0 0 30 30" fill="none" xmlns="http://www.w3.org/2000/svg">
<path d="M20 2.5H7.5C6.11929 2.5 5 3.61929 5 5V25C5 26.3807 6.11929 27.5 7.5 27.5H20C21.3807 27.5 22.5 26.3807 22.5 25V5C22.5 3.61929 21.3807 2.5 20 2.5Z" fill="#2D81FF"/>
<path d="M25 19.375C25.0147 20.1061 24.7726 20.8192 24.3159 21.3902C23.8591 21.9612 23.2165 22.3539 22.5 22.5C22.5 22.8315 22.3683 23.1495 22.1339 23.3839C21.8995 23.6183 21.5815 23.75 21.25 23.75C20.9185 23.75 20.6005 23.6183 20.3661 23.3839C20.1317 23.1495 20 22.8315 20 22.5H18.75C18.4185 22.5 18.1005 22.3683 17.8661 22.1339C17.6317 21.8995 17.5 21.5815 17.5 21.25C17.5 20.9185 17.6317 20.6005 17.8661 20.3661C18.1005 20.1317 18.4185 20 18.75 20H21.875C22.0408 20 22.1997 19.9342 22.3169 19.8169C22.4342 19.6997 22.5 19.5408 22.5 19.375C22.5 19.2092 22.4342 19.0503 22.3169 18.9331C22.1997 18.8158 22.0408 18.75 21.875 18.75H20.625C19.85 18.7508 19.1024 18.4636 18.5273 17.9441C17.9522 17.4247 17.5906 16.7101 17.5127 15.9391C17.4348 15.168 17.6462 14.3955 18.1058 13.7716C18.5655 13.1476 19.2405 12.7167 20 12.5625V12.5C20 12.1685 20.1317 11.8505 20.3661 11.6161C20.6005 11.3817 20.9185 11.25 21.25 11.25C21.5815 11.25 21.8995 11.3817 22.1339 11.6161C22.3683 11.8505 22.5 12.1685 22.5 12.5H23.75C24.0815 12.5 24.3995 12.6317 24.6339 12.8661C24.8683 13.1005 25 13.4185 25 13.75C25 14.0815 24.8683 14.3995 24.6339 14.6339C24.3995 14.8683 24.0815 15 23.75 15H20.625C20.4592 15 20.3003 15.0658 20.1831 15.1831C20.0658 15.3003 20 15.4592 20 15.625C20 15.7908 20.0658 15.9497 20.1831 16.0669C20.3003 16.1842 20.4592 16.25 20.625 16.25H21.875C22.7038 16.25 23.4987 16.5792 24.0847 17.1653C24.6708 17.7513 25 18.5462 25 19.375ZM10 2.5L10.3875 4.05C10.4559 4.32735 10.6173 4.57288 10.8447 4.74573C11.0722 4.91858 11.352 5.00832 11.6375 5H15.9375C16.223 5.00832 16.5028 4.91858 16.7303 4.74573C16.9577 4.57288 17.1191 4.32735 17.1875 4.05L17.5 2.5" fill="#BAD6FF"/>
</svg>
