<svg width="30" height="30" viewBox="0 0 30 30" fill="none" xmlns="http://www.w3.org/2000/svg">
<path d="M22.5 27.5H7.5C7.16848 27.5 6.85054 27.3683 6.61612 27.1339C6.3817 26.8995 6.25 26.5815 6.25 26.25C6.25 25.9185 6.3817 25.6005 6.61612 25.3661C6.85054 25.1317 7.16848 25 7.5 25H22.5C22.8315 25 23.1495 25.1317 23.3839 25.3661C23.6183 25.6005 23.75 25.9185 23.75 26.25C23.75 26.5815 23.6183 26.8995 23.3839 27.1339C23.1495 27.3683 22.8315 27.5 22.5 27.5ZM25 2.5H5C4.33696 2.5 3.70107 2.76339 3.23223 3.23223C2.76339 3.70107 2.5 4.33696 2.5 5V20C2.5 20.663 2.76339 21.2989 3.23223 21.7678C3.70107 22.2366 4.33696 22.5 5 22.5H25C25.663 22.5 26.2989 22.2366 26.7678 21.7678C27.2366 21.2989 27.5 20.663 27.5 20V5C27.5 4.33696 27.2366 3.70107 26.7678 3.23223C26.2989 2.76339 25.663 2.5 25 2.5Z" fill="#2D81FF"/>
<path d="M15.625 11.25H14.375C14.2092 11.25 14.0502 11.1842 13.933 11.0669C13.8158 10.9497 13.75 10.7908 13.75 10.625C13.75 10.4592 13.8158 10.3003 13.933 10.1831C14.0502 10.0658 14.2092 10 14.375 10H17.5C17.8315 10 18.1494 9.8683 18.3839 9.63388C18.6183 9.39946 18.75 9.08152 18.75 8.75C18.75 8.41848 18.6183 8.10054 18.3839 7.86612C18.1494 7.6317 17.8315 7.5 17.5 7.5H16.25C16.25 7.16848 16.1183 6.85054 15.8839 6.61612C15.6494 6.3817 15.3315 6.25 15 6.25C14.6685 6.25 14.3505 6.3817 14.1161 6.61612C13.8817 6.85054 13.75 7.16848 13.75 7.5C12.9212 7.58288 12.1592 7.99161 11.6318 8.63626C11.1043 9.28092 10.8546 10.1087 10.9375 10.9375C11.0204 11.7663 11.4291 12.5282 12.0737 13.0557C12.7184 13.5831 13.5462 13.8329 14.375 13.75H15.625C15.7907 13.75 15.9497 13.8158 16.0669 13.9331C16.1841 14.0503 16.25 14.2092 16.25 14.375C16.25 14.5408 16.1841 14.6997 16.0669 14.8169C15.9497 14.9342 15.7907 15 15.625 15H12.5C12.1685 15 11.8505 15.1317 11.6161 15.3661C11.3817 15.6005 11.25 15.9185 11.25 16.25C11.25 16.5815 11.3817 16.8995 11.6161 17.1339C11.8505 17.3683 12.1685 17.5 12.5 17.5H13.75C13.75 17.8315 13.8817 18.1495 14.1161 18.3839C14.3505 18.6183 14.6685 18.75 15 18.75C15.3315 18.75 15.6494 18.6183 15.8839 18.3839C16.1183 18.1495 16.25 17.8315 16.25 17.5C17.0788 17.4171 17.8407 17.0084 18.3682 16.3637C18.8956 15.7191 19.1454 14.8913 19.0625 14.0625C18.9796 13.2337 18.5709 12.4718 17.9262 11.9443C17.2816 11.4169 16.4538 11.1671 15.625 11.25V11.25Z" fill="#BAD6FF"/>
</svg>
