<svg width="35" height="35" viewBox="0 0 35 35" fill="none" xmlns="http://www.w3.org/2000/svg">
<path d="M17.5 21.875C22.3325 21.875 26.25 17.9575 26.25 13.125C26.25 8.29251 22.3325 4.375 17.5 4.375C12.6675 4.375 8.75 8.29251 8.75 13.125C8.75 17.9575 12.6675 21.875 17.5 21.875Z" stroke="white" stroke-width="1.25" stroke-linecap="round" stroke-linejoin="round"/>
<path d="M11.6666 19.9792C9.92669 20.8045 8.45571 22.1051 7.42352 23.7308C6.39132 25.3565 5.84001 27.241 5.83325 29.1667C5.83325 29.5534 5.9869 29.9244 6.26039 30.1979C6.53388 30.4714 6.90481 30.625 7.29159 30.625H27.7083C28.095 30.625 28.466 30.4714 28.7395 30.1979C29.0129 29.9244 29.1666 29.5534 29.1666 29.1667C29.1681 27.2335 28.6207 25.3397 27.588 23.7055C26.5553 22.0713 25.0799 20.7639 23.3333 19.9354" stroke="white" stroke-width="1.25" stroke-linecap="round" stroke-linejoin="round"/>
</svg>
