<svg width="30" height="30" viewBox="0 0 30 30" fill="none" xmlns="http://www.w3.org/2000/svg">
<path d="M27.4004 7.02469C27.3066 6.79641 27.1474 6.601 26.9427 6.46309C26.7381 6.32517 26.4972 6.25092 26.2504 6.24969H23.7504V3.74969C23.7492 3.5029 23.6749 3.26201 23.537 3.05736C23.3991 2.85271 23.2037 2.69346 22.9754 2.59969C22.7478 2.50396 22.4969 2.47781 22.2544 2.52453C22.0119 2.57124 21.7887 2.68874 21.6129 2.86219L17.8629 6.61219C17.7471 6.72899 17.6554 6.86751 17.5932 7.0198C17.531 7.1721 17.4995 7.33518 17.5004 7.49969V10.7372L14.7379 13.4872C14.6208 13.6034 14.5278 13.7416 14.4643 13.894C14.4008 14.0463 14.3682 14.2097 14.3682 14.3747C14.3682 14.5397 14.4008 14.7031 14.4643 14.8554C14.5278 15.0077 14.6208 15.146 14.7379 15.2622C14.8541 15.3793 14.9924 15.4723 15.1447 15.5358C15.297 15.5993 15.4604 15.6319 15.6254 15.6319C15.7904 15.6319 15.9538 15.5993 16.1061 15.5358C16.2585 15.4723 16.3967 15.3793 16.5129 15.2622L19.2629 12.4997H22.5004C22.6649 12.5006 22.828 12.4691 22.9803 12.4069C23.1326 12.3447 23.2711 12.253 23.3879 12.1372L27.1379 8.38719C27.3114 8.21141 27.4289 7.98819 27.4756 7.7457C27.5223 7.50322 27.4961 7.25232 27.4004 7.02469Z" fill="#BAD6FF"/>
<path d="M15 27.5C11.6848 27.5 8.50537 26.183 6.16117 23.8388C3.81696 21.4946 2.5 18.3152 2.5 15C2.5 11.6848 3.81696 8.50537 6.16117 6.16117C8.50537 3.81696 11.6848 2.5 15 2.5H15.525C15.6892 2.51477 15.8488 2.56174 15.9948 2.6382C16.1408 2.71467 16.2703 2.81915 16.3759 2.94567C16.4816 3.07219 16.5612 3.21827 16.6104 3.37558C16.6596 3.53289 16.6773 3.69835 16.6625 3.8625C16.6477 4.02665 16.6008 4.18629 16.5243 4.33229C16.4478 4.47829 16.3434 4.60781 16.2168 4.71343C16.0903 4.81906 15.9442 4.89873 15.7869 4.9479C15.6296 4.99707 15.4642 5.01477 15.3 5H15C13.0222 5 11.0888 5.58649 9.4443 6.6853C7.79981 7.78412 6.51808 9.3459 5.7612 11.1732C5.00433 13.0004 4.8063 15.0111 5.19215 16.9509C5.578 18.8907 6.53041 20.6725 7.92893 22.0711C9.32746 23.4696 11.1093 24.422 13.0491 24.8079C14.9889 25.1937 16.9996 24.9957 18.8268 24.2388C20.6541 23.4819 22.2159 22.2002 23.3147 20.5557C24.4135 18.9112 25 16.9778 25 15C25.0062 14.9001 25.0062 14.7999 25 14.7C24.9845 14.5357 25.0018 14.37 25.0507 14.2124C25.0996 14.0548 25.1792 13.9085 25.2849 13.7818C25.3907 13.6552 25.5205 13.5507 25.6668 13.4744C25.8131 13.3982 25.9731 13.3516 26.1375 13.3375C26.3018 13.322 26.4675 13.3393 26.6251 13.3882C26.7827 13.4371 26.929 13.5167 27.0557 13.6224C27.1824 13.7282 27.2868 13.858 27.3631 14.0043C27.4393 14.1506 27.4859 14.3106 27.5 14.475C27.5 14.65 27.5 14.825 27.5 15C27.5 18.3152 26.183 21.4946 23.8388 23.8388C21.4946 26.183 18.3152 27.5 15 27.5ZM22.35 16.5C22.4163 16.1685 22.3482 15.8242 22.1607 15.5429C21.9731 15.2616 21.6815 15.0663 21.35 15C21.0185 14.9337 20.6742 15.0018 20.3929 15.1893C20.1116 15.3769 19.9163 15.6685 19.85 16C19.6705 16.8879 19.2531 17.7104 18.6424 18.3796C18.0317 19.0487 17.2507 19.5394 16.3829 19.7991C15.515 20.0589 14.5929 20.078 13.715 19.8544C12.8371 19.6307 12.0365 19.1728 11.3986 18.5295C10.7608 17.8862 10.3097 17.0817 10.0936 16.202C9.87743 15.3222 9.90437 14.4003 10.1715 13.5347C10.4386 12.6691 10.9359 11.8923 11.6102 11.2873C12.2846 10.6824 13.1106 10.272 14 10.1C14.3315 10.0337 14.6231 9.83841 14.8107 9.55711C14.9982 9.2758 15.0663 8.93152 15 8.6C14.9337 8.26848 14.7384 7.97688 14.4571 7.78934C14.1758 7.6018 13.8315 7.5337 13.5 7.6C12.1726 7.87131 10.9435 8.4971 9.94331 9.41089C8.94306 10.3247 8.20902 11.4924 7.81916 12.7899C7.4293 14.0874 7.39817 15.4662 7.7291 16.78C8.06002 18.0938 8.74063 19.2934 9.69862 20.2514C10.6566 21.2094 11.8562 21.89 13.17 22.2209C14.4838 22.5518 15.8626 22.5207 17.1601 22.1308C18.4576 21.741 19.6253 21.0069 20.5391 20.0067C21.4529 19.0065 22.0787 17.7774 22.35 16.45V16.5Z" fill="#2D81FF"/>
</svg>
